<?xml version="1.0" standalone="no"?>
<!DOCTYPE svg PUBLIC "-//W3C//DTD SVG 20010904//EN"
 "http://www.w3.org/TR/2001/REC-SVG-20010904/DTD/svg10.dtd">
<svg version="1.0" xmlns="http://www.w3.org/2000/svg"
 width="1024.000000pt" height="1024.000000pt" viewBox="0 0 1024.000000 1024.000000"
 preserveAspectRatio="xMidYMid meet">
<metadata>
Created by potrace 1.14, written by Peter Selinger 2001-2017
</metadata>
<g transform="translate(0.000000,1024.000000) scale(0.100000,-0.100000)"
fill="#000000" stroke="none">
<path d="M0 5120 l0 -5120 5120 0 5120 0 0 5120 0 5120 -5120 0 -5120 0 0
-5120z m5635 3596 c395 -56 684 -143 1040 -315 659 -318 1127 -742 1517 -1376
495 -804 656 -1840 427 -2750 -77 -307 -219 -662 -359 -895 -170 -285 -349
-520 -539 -711 -538 -537 -1180 -876 -1956 -1033 -346 -70 -722 -75 -1175 -16
-154 20 -451 88 -619 142 -284 91 -688 293 -925 462 -323 232 -582 479 -791
751 -232 303 -351 506 -472 805 -188 461 -267 862 -267 1345 1 346 36 613 129
970 98 374 231 676 445 1010 135 211 410 542 571 686 281 252 415 347 761 536
356 194 742 322 1138 378 298 42 317 43 605 41 240 -3 307 -7 470 -30z"/>
<path d="M4905 8280 c-170 -16 -324 -40 -499 -81 -206 -48 -228 -55 -436 -136
-399 -156 -758 -393 -1077 -710 -220 -219 -401 -464 -541 -733 -204 -389 -302
-715 -358 -1190 -22 -193 -23 -502 0 -675 70 -540 267 -1024 601 -1470 213
-284 468 -524 778 -728 96 -64 389 -220 497 -264 288 -120 574 -192 927 -234
154 -19 210 -21 418 -15 133 3 278 12 325 20 368 62 514 99 715 177 133 52
462 217 565 283 102 66 308 224 404 310 164 147 404 431 537 636 114 176 139
218 189 320 28 58 60 122 70 142 33 62 108 285 150 443 40 155 60 270 81 462
17 163 6 561 -19 729 -72 461 -213 851 -439 1213 -287 459 -602 773 -1066
1064 -114 72 -331 178 -476 233 -108 42 -417 129 -541 153 -216 43 -616 68
-805 51z m288 -500 c57 -21 103 -63 133 -120 17 -31 19 -55 16 -197 l-3 -163
35 0 c53 0 159 -25 286 -68 222 -76 397 -180 544 -326 161 -160 249 -295 287
-444 23 -90 24 -146 4 -230 -19 -82 -30 -102 -89 -162 -108 -112 -255 -102
-382 25 -37 36 -65 80 -103 159 -28 60 -71 136 -94 169 -50 72 -172 179 -247
217 -47 24 -211 80 -233 80 -4 0 -7 -265 -7 -590 l0 -590 23 -5 c12 -2 49 -9
83 -15 145 -25 361 -91 472 -145 167 -81 246 -136 357 -249 149 -151 214 -268
277 -502 30 -113 32 -128 31 -299 0 -154 -3 -192 -21 -260 -82 -298 -349 -604
-667 -762 -153 -77 -342 -135 -483 -149 l-67 -6 0 -197 c0 -165 -3 -202 -18
-233 -24 -52 -73 -106 -118 -129 -73 -37 -189 -16 -247 44 -54 55 -62 97 -62
313 0 193 0 194 -22 198 -265 53 -436 112 -612 212 -120 68 -206 135 -311 245
-115 120 -158 181 -210 298 -80 181 -93 298 -43 413 59 137 239 207 374 144
96 -45 149 -108 195 -231 54 -146 220 -337 355 -408 57 -29 232 -87 267 -87 4
0 6 282 5 627 l-3 627 -79 12 c-91 14 -374 101 -487 150 -97 41 -238 135 -323
214 -63 59 -163 194 -203 275 -33 65 -80 224 -92 308 -29 212 8 475 91 641
124 248 411 504 695 618 128 51 254 87 334 94 l67 7 -2 166 c-1 152 1 169 21
206 25 48 54 76 108 103 51 27 100 27 168 2z"/>
<path d="M4870 6723 c-172 -59 -252 -98 -329 -163 -114 -95 -196 -239 -208
-364 -16 -173 107 -380 283 -473 63 -33 249 -87 271 -79 11 5 13 110 13 546 0
297 -4 540 -8 539 -4 0 -14 -3 -22 -6z"/>
<path d="M5340 4312 l-1 -580 68 13 c174 34 316 125 433 278 103 135 129 248
91 396 -23 93 -48 141 -115 223 -69 85 -162 143 -312 193 -71 24 -137 46 -146
50 -16 6 -17 -33 -18 -573z"/>
</g>
</svg>
